<?xml version="1.0" standalone="no"?>
<!DOCTYPE svg PUBLIC "-//W3C//DTD SVG 20010904//EN"
 "http://www.w3.org/TR/2001/REC-SVG-20010904/DTD/svg10.dtd">
<svg version="1.0" xmlns="http://www.w3.org/2000/svg"
 width="290.000000pt" height="290.000000pt" viewBox="0 0 290.000000 290.000000"
 preserveAspectRatio="xMidYMid meet">
<metadata>
Created by potrace 1.11, written by Peter Selinger 2001-2013
</metadata>
<g transform="translate(0.000000,290.000000) scale(0.100000,-0.100000)"
fill="#000000" stroke="none">
<path d="M0 1450 l0 -1450 1450 0 1450 0 0 1450 0 1450 -1450 0 -1450 0 0
-1450z m1629 1260 c3 0 -1 -6 -7 -12 -7 -7 -25 -13 -40 -13 -17 -1 -28 -7 -30
-17 -2 -12 2 -15 19 -11 18 5 20 3 15 -14 -4 -13 -1 -27 7 -35 12 -11 12 -17
2 -31 -13 -18 -31 -24 -20 -7 3 6 -1 7 -9 4 -10 -4 -16 -1 -16 7 0 11 -3 11
-10 -1 -16 -25 -11 -37 15 -44 28 -7 32 -31 11 -58 -16 -22 -26 -23 -26 -3 0
8 5 15 10 15 16 0 11 27 -6 34 -27 11 -38 6 -20 -7 16 -12 17 -17 6 -38 -20
-37 -60 -63 -60 -38 0 5 5 7 12 3 8 -5 9 -2 5 10 -4 10 -7 22 -7 27 0 16 -26
-1 -27 -19 -1 -9 -3 -26 -5 -37 -2 -13 3 -20 13 -20 9 0 23 -6 31 -13 12 -10
18 -8 33 8 14 16 20 17 26 8 7 -11 12 -10 30 0 31 19 35 7 9 -30 -15 -22 -20
-26 -17 -13 3 15 -1 21 -14 21 -14 0 -17 -6 -12 -25 4 -16 2 -22 -5 -17 -6 3
-12 1 -14 -6 -3 -7 -9 -8 -17 -3 -10 6 -8 11 10 21 25 14 23 16 -27 18 -27 1
-30 -1 -20 -16 5 -9 6 -21 2 -25 -5 -4 -11 -2 -13 5 -9 23 -33 13 -33 -14 0
-22 2 -25 15 -14 11 9 15 9 15 1 0 -7 5 -9 10 -6 6 3 10 3 10 -2 -1 -12 -49
-45 -58 -39 -4 2 -14 0 -22 -6 -12 -8 -12 -9 3 -4 19 6 24 -10 5 -17 -7 -3 -8
-6 -2 -6 5 -1 19 7 30 18 11 10 30 22 42 25 12 4 22 14 22 22 0 8 2 14 4 14 2
0 19 6 38 14 33 14 34 14 33 -10 -2 -32 -11 -40 -31 -23 -14 11 -16 10 -13
-11 4 -35 -50 -91 -79 -83 -15 3 -24 0 -28 -11 -3 -9 -10 -13 -15 -10 -5 3 -7
9 -4 14 3 4 -7 11 -22 15 -17 4 -29 2 -34 -7 -6 -10 -12 -8 -23 7 -9 11 -15
25 -16 30 0 7 3 7 8 0 4 -5 20 -11 35 -12 24 -2 27 1 22 18 -8 24 -55 76 -55
61 0 -6 10 -20 22 -32 l22 -20 -22 0 c-12 0 -22 5 -22 10 0 6 -6 10 -14 10
-11 0 -14 14 -13 60 1 33 5 60 10 60 4 0 5 11 1 25 -3 14 -2 25 3 25 5 0 8 18
6 39 -1 33 1 39 14 34 10 -4 14 -2 10 4 -4 6 -3 13 3 15 6 2 12 13 14 24 7 34
49 93 71 100 11 4 24 13 30 20 19 25 107 52 140 43 16 -5 32 -9 34 -9z m191
-510 c0 -5 -2 -10 -4 -10 -3 0 -8 5 -11 10 -3 6 -1 10 4 10 6 0 11 -4 11 -10z
m-422 -32 c15 -18 19 -43 7 -44 -6 -1 -9 2 -8 6 1 4 -4 11 -13 14 -12 5 -12 2
-3 -15 6 -11 8 -23 5 -26 -8 -9 -56 45 -56 63 0 18 53 19 68 2z m97 -28 c10
-11 31 -20 47 -20 34 0 35 -7 3 -50 -14 -19 -25 -44 -25 -57 l0 -24 34 26 c33
25 36 26 60 10 36 -24 32 -42 -11 -62 -35 -17 -38 -22 -41 -66 -2 -26 -7 -47
-13 -47 -5 0 -9 7 -9 17 0 9 -3 13 -7 10 -3 -4 -15 0 -25 10 -39 35 -14 -5 35
-57 58 -61 127 -102 201 -121 47 -12 48 -12 41 -45 -5 -28 -1 -39 20 -59 15
-16 25 -37 25 -55 0 -39 -12 -38 -45 3 -25 30 -26 26 -8 -20 6 -16 5 -16 -10
-4 -21 17 -22 3 -2 -23 8 -11 15 -41 15 -67 0 -25 9 -66 19 -90 10 -24 22 -60
25 -79 l6 -35 -20 43 c-18 40 -40 62 -25 25 30 -72 64 -190 74 -253 54 -339
72 -462 86 -570 27 -206 33 -244 36 -260 3 -12 -11 -16 -77 -18 l-82 -3 -5
148 c-8 232 -55 859 -72 957 -35 196 -63 258 -220 481 -47 67 -60 114 -37 132
13 10 14 13 2 11 -10 -2 -14 4 -12 16 4 21 -17 66 -30 66 -5 0 -1 -11 7 -24
11 -16 13 -26 6 -31 -6 -3 -11 0 -11 8 0 8 -7 18 -16 21 -8 3 -13 10 -10 15 4
5 1 11 -6 13 -10 4 -10 10 0 32 6 15 12 44 12 66 0 37 4 42 41 49 3 0 14 -8
24 -19z m165 -15 c17 -21 6 -43 -27 -51 -15 -4 -34 -11 -41 -17 -36 -29 -18
26 23 67 20 20 29 20 45 1z m-12 -197 c-7 -20 -58 -23 -58 -4 0 11 10 16 31
16 20 0 29 -4 27 -12z m-8 -96 c0 -10 -41 -35 -47 -28 -11 11 7 36 27 36 11 0
20 -3 20 -8z m293 -262 c27 -52 49 -119 42 -130 -4 -6 3 -25 14 -44 14 -22 21
-50 21 -83 0 -28 8 -70 19 -94 10 -24 22 -78 25 -119 4 -41 13 -133 22 -205 8
-71 16 -160 17 -198 2 -68 -8 -89 -19 -39 -3 15 -16 61 -29 102 -13 41 -30
122 -40 180 -40 255 -107 557 -133 607 -6 10 -12 49 -13 86 -2 59 1 70 22 93
l24 26 5 -74 c3 -42 13 -88 23 -108z m-1083 -150 c0 -5 -7 -10 -16 -10 -8 0
-12 5 -9 10 3 6 10 10 16 10 5 0 9 -4 9 -10z m45 0 c3 -5 -1 -10 -10 -10 -9 0
-13 5 -10 10 3 6 8 10 10 10 2 0 7 -4 10 -10z m45 -105 c0 -8 -22 -30 -49 -47
-32 -21 -51 -42 -54 -58 -7 -32 -2 -36 20 -19 16 12 17 12 7 -1 -7 -8 -9 -30
-7 -48 5 -30 8 -33 32 -27 19 4 22 3 11 -5 -27 -18 -77 -11 -108 15 l-30 25
-4 -61 c-2 -48 1 -64 15 -77 26 -23 6 -37 -50 -33 -53 3 -79 14 -105 45 -24
29 -22 41 7 54 20 10 33 9 62 -3 19 -8 36 -15 37 -15 1 0 0 16 -2 35 -5 41 -9
42 -63 14 -23 -11 -42 -19 -43 -17 -1 2 -7 16 -14 31 -11 26 -10 29 16 44 46
26 307 160 315 162 4 0 7 -6 7 -14z m-374 -132 c4 -13 5 -25 3 -26 -2 -1 -19
-13 -38 -26 -19 -13 -31 -19 -27 -13 3 6 2 12 -3 14 -20 8 -22 47 -2 67 25 25
59 17 67 -16z m34 -76 c0 -14 -40 -37 -64 -37 -8 0 -17 7 -20 16 -5 14 -4 15
8 5 16 -13 56 1 56 19 0 6 5 10 10 10 6 0 10 -6 10 -13z m280 -56 c0 -24 -13
-33 -34 -25 -12 5 -13 10 -5 25 13 25 39 24 39 0z m146 -7 c-3 -9 -6 -20 -6
-25 0 -16 -30 -10 -37 7 -6 17 12 34 36 34 8 0 11 -6 7 -16z m-386 -64 c22
-11 50 -20 62 -20 29 0 88 -35 88 -53 0 -23 -101 -19 -127 5 -14 13 -28 18
-42 13 -16 -5 -24 0 -32 19 -11 23 -7 56 6 56 3 0 23 -9 45 -20z m380 12 c0
-5 -7 -17 -15 -28 -14 -19 -14 -19 -15 2 0 11 3 24 7 27 9 10 23 9 23 -1z
m-37 -113 c-17 -17 -37 -1 -22 17 8 10 15 12 23 4 7 -7 7 -13 -1 -21z m-318 5
c14 -9 32 -14 40 -10 16 6 75 -30 75 -46 0 -4 -10 -8 -22 -8 l-23 -1 22 -18
c20 -17 21 -20 7 -32 -25 -20 -67 0 -79 39 -8 28 -14 32 -42 32 -30 0 -33 3
-33 30 0 35 17 39 55 14z"/>
<path d="M1470 2555 c0 -9 6 -12 15 -9 8 4 12 10 9 15 -8 14 -24 10 -24 -6z"/>
<path d="M1500 2494 c0 -8 5 -12 10 -9 6 4 8 11 5 16 -9 14 -15 11 -15 -7z"/>
<path d="M1425 2480 c-3 -5 -1 -10 4 -10 6 0 11 5 11 10 0 6 -2 10 -4 10 -3 0
-8 -4 -11 -10z"/>
<path d="M1400 2401 c0 -5 5 -13 10 -16 6 -3 10 -2 10 4 0 5 -4 13 -10 16 -5
3 -10 2 -10 -4z"/>
<path d="M1334 2385 c-3 -8 -2 -20 2 -27 9 -14 11 -19 13 -43 1 -9 7 -12 16
-9 14 6 13 8 -2 21 -16 13 -15 14 13 11 28 -4 29 -2 20 18 -9 19 -12 20 -22 6
-14 -20 -37 -6 -29 19 7 22 -3 26 -11 4z"/>
<path d="M1430 2051 c0 -5 5 -13 10 -16 6 -3 10 -2 10 4 0 5 -4 13 -10 16 -5
3 -10 2 -10 -4z"/>
</g>
</svg>
